<svg width="91" height="41" viewBox="0 0 91 41" fill="none" xmlns="http://www.w3.org/2000/svg">
<g clip-path="url(#clip0_2038_695)">
<path d="M29.7209 21.1696C29.7209 21.9416 29.04 22.3951 27.9058 22.3951C26.4924 22.3503 25.1411 21.8032 24.0943 20.8518L24.0487 20.8975V20.8518C23.0508 21.7596 22.143 22.3501 20.6911 22.3501C18.5134 22.3501 17.016 20.5341 17.016 18.3552V18.3095C17.016 16.1307 18.5585 14.3603 20.6911 14.3603C21.5168 14.3711 22.3213 14.6236 23.0052 15.0866C22.9657 15.2806 22.9504 15.4788 22.9595 15.6765V15.7222C22.9595 18.2645 24.5927 18.9451 27.1793 19.627C29.3102 20.1256 29.7209 20.4884 29.7209 21.1696ZM36.0253 0.514648V36.5586H0V0.514648H36.0253ZM32.4864 20.9426C32.4864 18.7198 31.0346 17.8103 28.4486 17.1291C26.2709 16.5842 25.7263 16.3121 25.7263 15.4471V15.4014C25.7263 14.7658 26.2709 14.3117 27.3594 14.3117C28.5664 14.391 29.7211 14.8341 30.6714 15.5828L32.1226 13.4977C30.7878 12.42 29.1189 11.8421 27.4039 11.8637C26.3317 11.8135 25.2748 12.1333 24.4102 12.7696C23.2802 12.1161 21.9923 11.7863 20.6875 11.8162C19.0754 11.788 17.5091 12.3534 16.2865 13.4052V12.0451H13.5185V19.8546L7.62536 11.9995H5.03634V24.7104H7.80549V16.6299L13.9748 24.7104H16.3315V23.3941C17.5173 24.4107 19.0331 24.9594 20.5945 24.9374C21.8513 24.9825 23.0949 24.6676 24.179 24.0297C25.3189 24.6086 26.5813 24.9043 27.8596 24.8918C30.5819 24.8918 32.5327 23.4843 32.4876 20.9426H32.4864ZM42.4228 1.15022H41.1523V35.923H42.4228V1.15022ZM47.8218 2.73736H46.869V9.9101H47.8218V5.23581L48.8654 8.50439V9.91191H49.8182V2.73736H48.8654V6.18917L47.8218 2.73736ZM52.4043 9.9101V2.73736H51.452V9.9101H52.4043ZM56.2608 6.18556C56.4513 6.16832 56.628 6.0787 56.7545 5.93512C56.8811 5.79154 56.9478 5.60492 56.941 5.41362V4.05537C56.941 3.19271 56.5328 2.73916 55.6705 2.73916H54.038V9.91191H55.9888C56.1139 9.93007 56.2415 9.92333 56.364 9.89207C56.4866 9.8608 56.6017 9.80564 56.7029 9.72973C56.8041 9.65382 56.8894 9.55867 56.9537 9.44973C57.0181 9.34079 57.0603 9.22021 57.0779 9.09491V7.00616C57.0779 6.59767 56.8059 6.32493 56.3064 6.18917H56.2596L56.2608 6.18556ZM54.9909 3.60181H55.5805C55.8525 3.60181 55.9888 3.78203 55.9888 4.10102V5.23581C55.9888 5.59624 55.8086 5.73501 55.4442 5.73501H54.9903L54.9909 3.60181ZM54.9909 6.64332H55.5355C55.8957 6.64332 56.1251 6.82354 56.1251 7.14253V8.73147C56.1251 8.95854 55.9888 9.04925 55.7648 9.04925H55.0359V6.64212L54.9909 6.64332ZM60.8438 6.18917C61.0344 6.17207 61.2113 6.08251 61.3379 5.93892C61.4646 5.79532 61.5314 5.60862 61.5247 5.41723V4.05537C61.5247 3.19271 61.1164 2.73916 60.2542 2.73916H58.621V9.91191H60.5718C60.697 9.93007 60.8245 9.92333 60.947 9.89207C61.0696 9.8608 61.1848 9.80564 61.286 9.72973C61.3872 9.65382 61.4724 9.55867 61.5367 9.44973C61.6011 9.34079 61.6433 9.22021 61.661 9.09491V7.00616C61.661 6.59767 61.389 6.32493 60.8894 6.18917H60.8438ZM59.5733 3.64687H60.1629C60.4349 3.64687 60.5712 3.82709 60.5712 4.14608V5.28146C60.5712 5.6419 60.3911 5.78067 60.0266 5.78067H59.5727L59.5733 3.64687ZM59.5733 6.64272H60.1179C60.4781 6.64272 60.7075 6.82294 60.7075 7.14193V8.73087C60.7075 8.95794 60.5712 9.04865 60.3472 9.04865H59.6189V6.64212L59.5733 6.64272ZM65.4718 9.04865H64.1563V2.73736H63.2034V9.9101H65.4718V9.04865ZM69.147 9.91131V9.04925H67.7402V6.64212H68.9651V5.78067H67.6946V3.60181H69.1014V2.73736H66.7423V9.9101L69.147 9.91131ZM48.7747 20.2187V20.6272C48.7747 20.8993 48.6384 21.0357 48.4144 21.0357H48.1875C47.9155 21.0357 47.8272 20.8993 47.8272 20.6272V16.04C47.8272 15.7678 47.9635 15.6315 48.1875 15.6315H48.3676C48.4161 15.6171 48.4673 15.6145 48.517 15.6239C48.5667 15.6333 48.6134 15.6544 48.6533 15.6855C48.6932 15.7165 48.7252 15.7567 48.7465 15.8025C48.7678 15.8484 48.7779 15.8987 48.7759 15.9493V16.7663H49.7288V15.9493C49.7288 15.1323 49.3685 14.7238 48.5946 14.7238H47.9581C47.1866 14.7238 46.8239 15.1323 46.8239 15.9493V20.6704C46.8239 21.4874 47.1842 21.8959 47.9581 21.8959H48.5477C49.3193 21.8959 49.6819 21.4874 49.6819 20.6704V20.2187H48.7747ZM53.2214 21.9007C53.3849 21.9196 53.5505 21.9006 53.7054 21.845C53.8604 21.7894 54.0003 21.6987 54.1145 21.5802C54.2287 21.4616 54.314 21.3182 54.3637 21.1613C54.4134 21.0043 54.4263 20.838 54.4013 20.6752V15.9493C54.4013 15.1323 54.041 14.7238 53.2671 14.7238H52.3568C51.5853 14.7238 51.2226 15.1323 51.2226 15.9493V20.6704C51.2226 21.4874 51.5829 21.8959 52.4024 21.8959L53.2214 21.9007ZM52.1323 20.6296V16.04C52.1255 15.9922 52.1285 15.9435 52.1409 15.8969C52.1534 15.8502 52.175 15.8066 52.2047 15.7685C52.2343 15.7304 52.2713 15.6986 52.3134 15.6751C52.3555 15.6515 52.4019 15.6367 52.4499 15.6315H52.9945C53.0429 15.6171 53.0942 15.6145 53.1438 15.6239C53.1935 15.6333 53.2403 15.6544 53.2802 15.6855C53.3201 15.7165 53.352 15.7567 53.3733 15.8025C53.3947 15.8484 53.4047 15.8987 53.4028 15.9493V20.6248C53.4028 20.8969 53.2665 21.0333 53.0425 21.0333H52.5435C52.4927 21.0448 52.4399 21.0456 52.3887 21.0356C52.3375 21.0255 52.289 21.0049 52.2462 20.9749C52.2035 20.945 52.1675 20.9065 52.1405 20.8618C52.1135 20.8171 52.0962 20.7673 52.0896 20.7155C52.1353 20.7155 52.1353 20.6698 52.1353 20.6248L52.1323 20.6296ZM57.0323 14.728H55.9888V21.9007H56.9416L56.851 17.2252L57.5769 20.6302H58.301L58.9819 17.2252L58.8912 21.9007H59.8441V14.7232H58.8023L57.8945 18.9451L57.0323 14.728ZM61.5241 21.9007H62.4769V19.3086H63.2935C64.065 19.3086 64.4277 18.9001 64.4277 18.0831V15.9493C64.4277 15.1323 64.0675 14.7238 63.2479 14.7238H61.4784L61.5241 21.9007ZM62.4769 15.593H63.0215C63.07 15.5787 63.1212 15.5761 63.1709 15.5855C63.2206 15.5949 63.2673 15.616 63.3072 15.647C63.3471 15.6781 63.3791 15.7182 63.4004 15.7641C63.4217 15.81 63.4318 15.8603 63.4298 15.9108V17.999C63.4298 18.2711 63.2935 18.4075 63.0695 18.4075H62.4799V15.5858L62.4769 15.593ZM68.0579 14.7304V20.5413C68.0579 20.8591 67.9216 20.9954 67.6496 20.9954H67.2413C66.9693 20.9954 66.833 20.8591 66.833 20.5413V14.7232H65.8801V20.5341C65.8801 21.4418 66.2404 21.8959 67.0143 21.8959H67.8309C68.6024 21.8959 69.0107 21.4418 69.0107 20.5341V14.7232L68.0579 14.7304ZM73.0942 15.593V14.7232H70.3262V15.5858H71.2335V21.8935H72.1864V15.5858L73.0942 15.593ZM76.7694 21.9007V21.0333H75.3626V18.673H76.6331V17.7647H75.3626V15.5858H76.7694V14.7232H74.4103V21.8959L76.7694 21.9007ZM78.2212 21.9007H79.1741V18.9908H79.7637L80.3989 21.8959H81.3062L80.6259 18.8971C81.0342 18.7168 81.2155 18.3522 81.2155 17.7166V15.9493C81.2155 15.1323 80.8525 14.7238 80.1263 14.7238H78.265L78.2212 21.9007ZM79.1741 15.593H79.8093C80.0813 15.593 80.2176 15.7733 80.2176 16.0922V17.6355C80.2176 17.996 80.0813 18.1347 79.8093 18.1347H79.1741V15.593ZM49.6369 28.6596V27.9333C49.6369 27.1163 49.2767 26.7078 48.5027 26.7078H47.9137C47.1422 26.7078 46.7795 27.1163 46.7795 27.9333V29.3859C46.7721 29.5387 46.7875 29.6917 46.8251 29.84C46.8708 29.9307 46.9158 30.0671 47.0053 30.1121C47.1504 30.2128 47.302 30.3037 47.4592 30.3843L48.3664 30.8835C48.4571 30.9291 48.5465 31.0198 48.6384 31.0637C48.6887 31.1465 48.7196 31.2395 48.7291 31.3358V32.5613C48.7291 32.8335 48.5928 32.9698 48.3688 32.9698H48.1887C48.1402 32.9842 48.089 32.9868 48.0393 32.9774C47.9896 32.968 47.9429 32.9469 47.903 32.9158C47.8631 32.8848 47.8311 32.8446 47.8098 32.7988C47.7885 32.7529 47.7784 32.7026 47.7804 32.652V32.1552H46.7333V32.5157C46.7333 33.3783 47.0935 33.8319 47.8675 33.8319H48.4571C48.6206 33.8508 48.7862 33.8317 48.9411 33.7761C49.096 33.7205 49.236 33.6299 49.3502 33.5113C49.4643 33.3927 49.5496 33.2494 49.5993 33.0924C49.6491 32.9354 49.6619 32.7691 49.6369 32.6064V31.1112C49.6551 30.9395 49.6236 30.7662 49.5462 30.6119C49.4977 30.5278 49.437 30.4513 49.3661 30.3849L48.9578 30.1127L48.0506 29.6135C47.9599 29.5679 47.8705 29.4772 47.7786 29.4333C47.7283 29.3506 47.6974 29.2575 47.6879 29.1612V27.9789C47.6879 27.7068 47.8242 27.5248 48.0962 27.5248H48.2325C48.2807 27.5147 48.3305 27.5153 48.3784 27.5264C48.4264 27.5375 48.4713 27.5589 48.5102 27.5891C48.549 27.6194 48.5808 27.6577 48.6034 27.7015C48.6259 27.7452 48.6387 27.7934 48.6408 27.8426V28.6596H49.6369ZM53.1758 33.9256C53.3393 33.9445 53.5049 33.9254 53.6598 33.8698C53.8147 33.8142 53.9547 33.7236 54.0689 33.605C54.183 33.4864 54.2683 33.3431 54.3181 33.1861C54.3678 33.0292 54.3806 32.8628 54.3556 32.7001V27.9333C54.3556 27.1163 53.9954 26.7078 53.2214 26.7078H52.3136C51.542 26.7078 51.1794 27.1163 51.1794 27.9333V32.6538C51.1544 32.8166 51.1672 32.9829 51.217 33.1399C51.2667 33.2968 51.352 33.4402 51.4661 33.5588C51.5803 33.6773 51.7203 33.768 51.8752 33.8236C52.0301 33.8792 52.1957 33.8983 52.3592 33.8793L53.1758 33.9256ZM52.0866 32.6094V28.024C52.0799 27.9762 52.0829 27.9275 52.0953 27.8809C52.1077 27.8342 52.1294 27.7906 52.159 27.7525C52.1886 27.7144 52.2256 27.6826 52.2677 27.6591C52.3099 27.6356 52.3563 27.6207 52.4043 27.6155H52.9488C52.9973 27.6011 53.0485 27.5985 53.0982 27.6079C53.1479 27.6173 53.1946 27.6384 53.2345 27.6695C53.2744 27.7006 53.3064 27.7407 53.3277 27.7866C53.349 27.8324 53.3591 27.8827 53.3571 27.9333V32.6088C53.3571 32.8809 53.2208 33.0173 52.9969 33.0173H52.4979C52.4494 33.0316 52.3982 33.0342 52.3485 33.0248C52.2989 33.0154 52.2521 32.9943 52.2122 32.9633C52.1723 32.9322 52.1404 32.8921 52.119 32.8462C52.0977 32.8003 52.0876 32.75 52.0896 32.6995C52.0896 32.6538 52.0896 32.6538 52.0896 32.6088L52.0866 32.6094ZM57.8507 32.2489V32.6574C57.8507 32.9296 57.7144 33.0659 57.4904 33.0659H57.2635C56.9915 33.0659 56.9032 32.9296 56.9032 32.6574V28.024C56.9032 27.7519 57.0395 27.6155 57.2635 27.6155H57.4436C57.4921 27.6011 57.5433 27.5985 57.593 27.6079C57.6427 27.6173 57.6894 27.6384 57.7293 27.6695C57.7692 27.7006 57.8011 27.7407 57.8225 27.7866C57.8438 27.8324 57.8539 27.8827 57.8519 27.9333V28.7491H58.8048V27.9321C58.8048 27.1151 58.4445 26.7066 57.6706 26.7066H57.0323C56.2608 26.7066 55.8981 27.1151 55.8981 27.9321V32.6538C55.8981 33.4708 56.2584 33.8793 57.0323 33.8793H57.6675C58.4391 33.8793 58.8017 33.4708 58.8017 32.6538V32.1997L57.8507 32.2489ZM61.2539 33.931V26.7066H60.301V33.8793L61.2539 33.931ZM65.2917 33.931V33.0629H63.8849V30.657H65.1554V29.795H63.8849V27.6155H65.2917V26.7534H62.9327V33.9262L65.2917 33.931ZM69.1945 27.6233V26.7066H66.3815V27.5692H67.2887V33.8769H68.2416V27.5692L69.1945 27.6233ZM72.28 31.2547L73.4599 26.715H72.507L71.8705 29.84H71.8249L71.0978 26.7066H70.1449L71.3248 31.2463V33.8793H72.2776L72.28 31.2547Z" fill="black"/>
</g>
<defs>
<clipPath id="clip0_2038_695">
<rect width="90.23" height="40" fill="white" transform="translate(0 0.514648)"/>
</clipPath>
</defs>
</svg>
