<svg width="42" height="42" viewBox="0 0 42 42" fill="none" xmlns="http://www.w3.org/2000/svg">
<g clip-path="url(#clip0_2012_727)">
<path fill-rule="evenodd" clip-rule="evenodd" d="M20.7558 45.5443H5.81817C5.64541 37.9062 11.5222 33.4719 16.5686 31.8172C16.9779 29.6862 16.8733 26.9221 16.8733 26.9221H20.7558H24.6384C24.6384 26.9221 24.5338 29.6862 24.9433 31.8172C29.9893 33.4719 35.8663 37.9062 35.6933 45.5443H20.7558Z" fill="#58556C"/>
<path fill-rule="evenodd" clip-rule="evenodd" d="M12.5341 20.7962C12.4979 20.3966 10.8641 19.9248 10.3197 21.2316C9.77527 22.5384 10.7555 24.3898 12.6067 24.535C14.4579 24.6802 13.9135 24.3536 13.9135 24.3536L12.5341 20.7962Z" fill="#F8D7B8"/>
<path fill-rule="evenodd" clip-rule="evenodd" d="M29.0168 20.7962C29.053 20.3966 30.6866 19.9248 31.2309 21.2316C31.7753 22.5384 30.7953 24.3898 28.9442 24.535C27.0928 24.6802 27.6372 24.3536 27.6372 24.3536L29.0168 20.7962Z" fill="#F8D7B8"/>
<path fill-rule="evenodd" clip-rule="evenodd" d="M24.6871 29.6631C23.0064 32.8783 18.6771 33.2137 16.8184 29.7868C16.8672 29.086 16.883 28.4261 16.8859 27.9169H24.6278C24.6303 28.396 24.6446 29.0084 24.6871 29.6631Z" fill="#FCC592"/>
<path fill-rule="evenodd" clip-rule="evenodd" d="M20.7552 29.5977C11.123 29.8294 6.25966 6.07622 20.7552 6.68459C35.2506 6.07622 30.3874 29.8294 20.7552 29.5977Z" fill="#F8D7B8"/>
<path fill-rule="evenodd" clip-rule="evenodd" d="M17.5167 18.5728C17.9033 18.8518 17.9902 19.3909 17.7108 19.7767C17.4309 20.1626 16.8909 20.2493 16.5043 19.9705C16.1176 19.6914 16.0309 19.1523 16.3103 18.7664C16.59 18.3804 17.13 18.294 17.5167 18.5728Z" fill="#20201E"/>
<path fill-rule="evenodd" clip-rule="evenodd" d="M24.0435 18.5728C23.6567 18.8518 23.5698 19.3909 23.8495 19.7767C24.1289 20.1626 24.6691 20.2493 25.0559 19.9705C25.4425 19.6914 25.5294 19.1523 25.2499 18.7664C24.9703 18.3804 24.4303 18.294 24.0435 18.5728Z" fill="#20201E"/>
<path fill-rule="evenodd" clip-rule="evenodd" d="M17.8956 16.2304C17.8636 16.2163 17.8314 16.2032 17.7986 16.1906C17.4222 16.0549 17.1029 16.0182 16.6964 16.0475C16.298 16.0896 16.0009 16.1796 15.6669 16.3701C15.5112 16.4705 14.903 16.9627 15.0754 17.1445C15.1459 17.1638 15.7515 16.8543 15.9295 16.7966C16.2063 16.7148 16.4308 16.6836 16.7239 16.6897C16.9973 16.7022 17.2031 16.7417 17.4522 16.8379C17.459 16.8391 17.504 16.8596 17.5137 16.8636C18.0217 17.1106 17.9756 17.2695 18.3222 17.0317C18.8561 16.7478 18.3068 16.4437 17.8956 16.2304Z" fill="#3F2716"/>
<path fill-rule="evenodd" clip-rule="evenodd" d="M23.6145 16.2304C23.6467 16.2163 23.6787 16.2032 23.7115 16.1906C24.088 16.0549 24.4072 16.0182 24.814 16.0475C25.2121 16.0896 25.5092 16.1796 25.8432 16.3701C25.9989 16.4705 26.6071 16.9627 26.4345 17.1445C26.3642 17.1638 25.7584 16.8543 25.5806 16.7966C25.3036 16.7148 25.0791 16.6836 24.786 16.6897C24.5126 16.7022 24.307 16.7417 24.0579 16.8379C24.0509 16.8391 24.0061 16.8596 23.9964 16.8636C23.4884 17.1106 23.5343 17.2695 23.1877 17.0317C22.6541 16.7478 23.2033 16.4437 23.6145 16.2304Z" fill="#3F2716"/>
<path fill-rule="evenodd" clip-rule="evenodd" d="M20.3033 26.44C20.2538 26.4109 20.2372 26.3474 20.2662 26.2977C20.2953 26.2483 20.3588 26.2314 20.4085 26.2605C20.5522 26.3444 20.7351 26.3867 20.9182 26.3867C21.101 26.3867 21.2805 26.3448 21.4184 26.2613C21.4672 26.2314 21.5314 26.2474 21.5613 26.2964C21.5909 26.3453 21.5751 26.4094 21.5261 26.4393C21.3544 26.5435 21.136 26.5955 20.9182 26.5955C20.7006 26.5955 20.4803 26.5437 20.3033 26.44Z" fill="#D67F54"/>
<path fill-rule="evenodd" clip-rule="evenodd" d="M20.6786 22.6608C20.6211 22.6608 20.5742 22.6141 20.5742 22.5564C20.5742 22.499 20.6209 22.4521 20.6786 22.4521C20.9292 22.4521 21.2289 22.4497 21.4599 22.4106C21.6502 22.3784 21.7899 22.3268 21.7899 22.2401C21.7899 21.9396 21.4856 20.072 21.4846 20.0668C21.4757 20.01 21.5144 19.9567 21.5713 19.9477C21.6281 19.9388 21.6813 19.9773 21.6904 20.0342C21.6912 20.0396 21.9986 21.9268 21.9986 22.2401C21.9986 22.46 21.7848 22.5667 21.4942 22.616C21.2451 22.6585 20.9366 22.6608 20.6786 22.6608Z" fill="#D67F54"/>
<path fill-rule="evenodd" clip-rule="evenodd" d="M30.6401 22.2633C30.6401 22.3207 30.5934 22.3676 30.5358 22.3676C30.4779 22.3676 30.4312 22.3207 30.4312 22.2633C30.4312 21.9459 30.3762 21.7467 30.2881 21.6381C30.2353 21.5728 30.1681 21.543 30.0938 21.5413C30.0084 21.5392 29.9108 21.5712 29.8093 21.6288C29.5351 21.7839 29.2517 22.1132 29.0949 22.4718C29.0194 22.6444 28.9543 22.822 28.9169 22.9562C29.0772 22.8447 29.2542 22.8003 29.4034 22.8152C29.4882 22.8239 29.5657 22.8512 29.6284 22.8965C29.6944 22.9442 29.7439 23.0103 29.7687 23.0934C29.8114 23.2367 29.7784 23.4291 29.6246 23.6585C29.5926 23.7062 29.5278 23.7191 29.48 23.6871C29.4322 23.6553 29.4194 23.5905 29.4514 23.5425C29.5663 23.3712 29.5947 23.2405 29.5686 23.1528C29.5577 23.1155 29.5358 23.0863 29.5067 23.0652C29.4741 23.0419 29.4314 23.0271 29.383 23.0223C29.249 23.0091 29.0791 23.0676 28.9377 23.2098C28.8998 23.2479 28.8641 23.2694 28.8314 23.2763C28.7477 23.2944 28.6989 23.2576 28.6808 23.1755L28.6797 23.17C28.6734 23.1393 28.6749 23.0974 28.6827 23.0482C28.7062 22.8996 28.7955 22.637 28.904 22.3887C29.0781 21.9908 29.3967 21.6231 29.7066 21.4476C29.8396 21.3725 29.9735 21.3302 30.0978 21.3332C30.2334 21.3365 30.3548 21.39 30.4495 21.5068C30.5671 21.6511 30.6401 21.8944 30.6401 22.2633Z" fill="#D67F54"/>
<path fill-rule="evenodd" clip-rule="evenodd" d="M11.0818 22.2633C11.0818 22.3207 11.0351 22.3677 10.9774 22.3677C10.9198 22.3677 10.873 22.3207 10.873 22.2633C10.873 21.8944 10.9459 21.6511 11.0633 21.5068C11.1584 21.3898 11.2796 21.3363 11.4149 21.3332C11.5395 21.3302 11.6733 21.3723 11.8061 21.4476C12.1161 21.6231 12.4347 21.9908 12.6087 22.3887C12.7173 22.637 12.8065 22.8996 12.8301 23.0482C12.8379 23.0974 12.8393 23.1393 12.8332 23.17L12.832 23.1755C12.8139 23.2576 12.7653 23.2944 12.6813 23.2763C12.6487 23.2694 12.6131 23.2477 12.5753 23.2098C12.4338 23.0676 12.264 23.0091 12.13 23.0223C12.0814 23.0271 12.0386 23.0419 12.006 23.0652C11.9768 23.0863 11.9551 23.1155 11.9442 23.1528C11.9179 23.2405 11.9465 23.371 12.0614 23.5425C12.0934 23.5905 12.0805 23.6551 12.0328 23.6871C11.985 23.7191 11.9204 23.7062 11.8882 23.6585C11.7346 23.4289 11.7013 23.2365 11.7442 23.0934C11.7691 23.0103 11.8183 22.9442 11.8844 22.8965C11.9473 22.8512 12.0245 22.8239 12.1093 22.8152C12.2585 22.8003 12.4355 22.8447 12.5959 22.9562C12.5586 22.822 12.4934 22.6446 12.4178 22.4718C12.2611 22.1132 11.9774 21.7839 11.7032 21.6288C11.602 21.5712 11.5044 21.5392 11.4187 21.5413C11.3444 21.543 11.2777 21.5728 11.2245 21.6381C11.1367 21.7467 11.0818 21.9459 11.0818 22.2633Z" fill="#D67F54"/>
<path fill-rule="evenodd" clip-rule="evenodd" d="M31.414 8.66124C31.8153 8.73805 31.7629 9.06781 30.5921 9.89418C31.6741 11.2576 31.8406 13.4238 31.4708 15.4562C31.3919 15.8899 30.1708 18.9654 29.0203 20.9801C28.9136 21.1671 28.9848 16.9854 27.7769 15.315C27.1639 14.4675 26.6588 13.4629 25.4103 12.6258C25.3977 12.8636 26.1393 13.5126 25.8626 13.6431C24.8039 14.142 21.8226 13.6267 20.4456 13.2775C20.8418 13.6856 21.2463 13.9817 21.0943 14.1306C20.6204 14.5961 17.623 13.8695 15.7716 12.6267C15.323 14.1071 14.6896 15.679 13.9779 16.0978C12.073 17.2186 12.9034 21.9516 12.4036 21.2562C10.1103 18.0664 10.6886 13.936 10.6886 13.936C10.4663 14.2885 10.2136 14.5917 10.0383 14.9562C9.72204 15.6144 9.5055 9.56022 12.3834 8.77509C12.3834 8.77509 11.9295 8.61832 10.7618 8.83717C10.3334 8.91776 11.6042 7.73639 12.9747 7.58298C13.0141 6.98682 13.2803 4.59397 15.03 3.82189C15.8417 3.46373 17.1716 3.22047 17.0026 3.32274C16.1685 3.82799 15.9288 4.53063 15.9288 4.53063C22.3317 1.51006 25.2443 4.72107 27.7537 6.73388C28.5126 7.34224 30.1188 8.55982 31.414 8.66124Z" fill="black"/>
<path fill-rule="evenodd" clip-rule="evenodd" d="M16.7958 16.576C17.6483 16.576 18.42 16.9218 18.9785 17.4805C19.5372 18.0388 19.8829 18.8107 19.8829 19.6631C19.8829 20.5154 19.5372 21.2872 18.9785 21.8457C18.42 22.4042 17.6483 22.75 16.7958 22.75C15.9436 22.75 15.1717 22.4042 14.613 21.8457C14.0545 21.2872 13.709 20.5154 13.709 19.6631C13.709 18.8107 14.0547 18.0388 14.613 17.4805C15.1717 16.9218 15.9436 16.576 16.7958 16.576ZM18.6094 17.8496C18.1451 17.3854 17.504 17.0983 16.7958 17.0983C16.0877 17.0983 15.4463 17.3854 14.9821 17.8496C14.5181 18.3136 14.2309 18.955 14.2309 19.6631C14.2309 20.3712 14.5181 21.0124 14.9821 21.4766C15.4463 21.9406 16.0875 22.2277 16.7958 22.2277C17.504 22.2277 18.1454 21.9406 18.6094 21.4766C19.0736 21.0124 19.3606 20.3712 19.3606 19.6631C19.3606 18.955 19.0736 18.3136 18.6094 17.8496Z" fill="#2E1E11"/>
<path fill-rule="evenodd" clip-rule="evenodd" d="M24.714 16.576C25.5663 16.576 26.3382 16.9218 26.8969 17.4805C27.4556 18.0388 27.8009 18.8107 27.8009 19.6631C27.8009 20.5154 27.4553 21.2872 26.8969 21.8457C26.3384 22.4042 25.5663 22.75 24.714 22.75C23.8616 22.75 23.0899 22.4042 22.5312 21.8457C21.9725 21.2872 21.627 20.5154 21.627 19.6631C21.627 18.8107 21.9725 18.0388 22.5312 17.4805C23.0899 16.9218 23.8616 16.576 24.714 16.576ZM26.5275 17.8496C26.0633 17.3854 25.4221 17.0983 24.714 17.0983C24.0057 17.0983 23.3645 17.3854 22.9005 17.8496C22.4363 18.3136 22.1495 18.955 22.1495 19.6631C22.1495 20.3712 22.4363 21.0124 22.9005 21.4766C23.3645 21.9406 24.0059 22.2277 24.714 22.2277C25.4221 22.2277 26.0635 21.9406 26.5275 21.4766C26.9916 21.0124 27.2788 20.3712 27.2788 19.6631C27.2788 18.955 26.9916 18.3136 26.5275 17.8496Z" fill="#2E1E11"/>
<path fill-rule="evenodd" clip-rule="evenodd" d="M13.879 19.4108C13.9869 19.3718 14.1063 19.4282 14.145 19.5366C14.1837 19.6445 14.1275 19.7637 14.0191 19.8026L12.1806 20.4648C12.0724 20.5035 11.9535 20.4471 11.9146 20.3388C11.8759 20.2308 11.932 20.1117 12.0404 20.0728L13.879 19.4108Z" fill="#2E1E11"/>
<path fill-rule="evenodd" clip-rule="evenodd" d="M27.4992 19.8023C27.391 19.7633 27.3348 19.6442 27.3736 19.5363C27.4125 19.4279 27.5314 19.3717 27.6396 19.4104L29.4781 20.0727C29.5863 20.1114 29.6425 20.2307 29.6037 20.3387C29.565 20.447 29.4459 20.5032 29.3378 20.4647L27.4992 19.8023Z" fill="#2E1E11"/>
<path fill-rule="evenodd" clip-rule="evenodd" d="M19.6655 19.4231C19.6055 19.5214 19.4772 19.5523 19.3791 19.4923C19.2808 19.4324 19.2499 19.3042 19.3099 19.2061C19.3107 19.2045 19.664 18.6053 20.7535 18.6053C21.8429 18.6053 22.196 19.2047 22.197 19.2061C22.2568 19.3044 22.2259 19.4324 22.1276 19.4923C22.0295 19.5523 21.9012 19.5214 21.8412 19.4231C21.8408 19.4218 21.6068 19.0231 20.7535 19.0231C19.8999 19.0228 19.6661 19.4218 19.6655 19.4231Z" fill="#2E1E11"/>
<path fill-rule="evenodd" clip-rule="evenodd" d="M24.0264 23.6498C22.715 24.1367 18.7295 24.1268 17.4922 23.7085C18.1759 26.1996 23.3616 26.16 24.0264 23.6498Z" fill="white"/>
<path fill-rule="evenodd" clip-rule="evenodd" d="M16.734 29.2256C16.6273 29.1797 16.3533 29.1837 16.3535 29.3767C16.3539 29.5854 16.5492 30.3038 16.4093 30.8346C16.2615 31.3949 16.0134 31.8556 16.2994 31.9667C17.6153 32.478 19.049 32.7485 20.4892 32.7773C22.1042 32.8101 23.7277 32.5399 25.2033 31.9667C25.4893 31.8556 25.241 31.3949 25.0935 30.8346C24.9535 30.3038 25.1488 29.5854 25.1492 29.3767C25.1497 29.1837 24.8755 29.1797 24.7688 29.2256C22.2008 30.3257 19.3019 30.3257 16.734 29.2256Z" fill="#67627E"/>
<path fill-rule="evenodd" clip-rule="evenodd" d="M9.86057 41.2213C9.86141 41.135 9.93169 41.0658 10.018 41.0664C10.1042 41.0673 10.1735 41.1375 10.1729 41.2238L10.1343 45.5457C10.1337 45.632 10.0632 45.7012 9.97715 45.7006C9.89108 45.7 9.82185 45.6295 9.82227 45.5434L9.86057 41.2213Z" fill="#383546"/>
<path fill-rule="evenodd" clip-rule="evenodd" d="M31.3766 41.2213C31.3772 41.135 31.4477 41.0658 31.5338 41.0664C31.6201 41.0673 31.6893 41.1375 31.6887 41.2238L31.6502 45.5457C31.6495 45.632 31.5791 45.7012 31.4928 45.7006C31.4067 45.7 31.3373 45.6295 31.3379 45.5434L31.3766 41.2213Z" fill="#383546"/>
<path fill-rule="evenodd" clip-rule="evenodd" d="M17.0649 29.7138C17.0668 29.6565 17.1148 29.6113 17.1721 29.613C17.2297 29.6149 17.2747 29.6626 17.2729 29.7203C17.2682 29.8625 17.2667 29.9962 17.2653 30.1308C17.2621 30.4069 17.259 30.6874 17.2314 31.017C17.1878 31.5395 16.9073 31.9751 16.9065 31.9761C16.8758 32.0245 16.8114 32.0391 16.7628 32.0079C16.7146 31.977 16.7003 31.9128 16.7312 31.8642C16.7318 31.8631 16.9841 31.4719 17.0235 30.9999C17.0511 30.6677 17.0542 30.3964 17.0574 30.1292C17.0588 29.9907 17.0605 29.8533 17.0649 29.7138Z" fill="#58556C"/>
<path fill-rule="evenodd" clip-rule="evenodd" d="M17.9224 30.0176C17.9243 29.9604 17.9722 29.9151 18.0297 29.9168C18.0871 29.9187 18.1322 29.9665 18.1305 30.0241C18.1259 30.1664 18.1244 30.3 18.1229 30.4347C18.1198 30.7106 18.1166 30.9913 18.089 31.3208C18.0455 31.8433 17.7647 32.2787 17.7639 32.28C17.7332 32.3284 17.6688 32.3429 17.6202 32.3117C17.572 32.2808 17.5577 32.2166 17.5886 32.168C17.5892 32.167 17.8416 31.7756 17.8809 31.3036C17.9085 30.9713 17.9116 30.7 17.9148 30.4328C17.9163 30.2947 17.9179 30.1571 17.9224 30.0176Z" fill="#58556C"/>
<path fill-rule="evenodd" clip-rule="evenodd" d="M18.8189 30.1834C18.8208 30.126 18.8686 30.0809 18.926 30.0828C18.9835 30.0847 19.0287 30.1327 19.0268 30.1899C19.0224 30.3322 19.0209 30.4658 19.0192 30.6005C19.0163 30.8764 19.0131 31.1571 18.9854 31.4868C18.9418 32.0093 18.6613 32.4447 18.6604 32.446C18.6297 32.4942 18.5653 32.5087 18.5167 32.4778C18.4683 32.4468 18.4542 32.3827 18.4852 32.3343C18.4856 32.333 18.7381 31.9416 18.7774 31.4696C18.805 31.1375 18.8082 30.8661 18.8113 30.599C18.8126 30.4606 18.8143 30.3229 18.8189 30.1834Z" fill="#58556C"/>
<path fill-rule="evenodd" clip-rule="evenodd" d="M19.7427 30.3492C19.7446 30.2918 19.7925 30.2465 19.8498 30.2482C19.9074 30.2503 19.9525 30.2981 19.9506 30.3555C19.946 30.4978 19.9445 30.6316 19.943 30.7661C19.9399 31.0422 19.9367 31.3227 19.9091 31.6522C19.8658 32.1749 19.5851 32.6101 19.5842 32.6116C19.5535 32.66 19.4891 32.6743 19.4405 32.6432C19.3923 32.6122 19.378 32.5483 19.4089 32.4997C19.4096 32.4986 19.6619 32.1072 19.7012 31.6352C19.7288 31.3031 19.7319 31.0317 19.7351 30.7644C19.7366 30.6264 19.7383 30.4889 19.7427 30.3492Z" fill="#58556C"/>
<path fill-rule="evenodd" clip-rule="evenodd" d="M24.1348 29.7203C24.1331 29.6628 24.1782 29.6149 24.2356 29.613C24.2933 29.6111 24.341 29.6563 24.3429 29.7138C24.3476 29.8533 24.349 29.9907 24.3507 30.1294C24.3537 30.3966 24.3568 30.6679 24.3846 31.0002C24.4239 31.4722 24.676 31.8636 24.6769 31.8644C24.7078 31.9128 24.6935 31.9772 24.6451 32.0081C24.5967 32.0391 24.5323 32.0248 24.5014 31.9764C24.5008 31.9753 24.2198 31.5399 24.1763 31.0172C24.1489 30.6877 24.1458 30.4072 24.1426 30.1311C24.1409 29.9962 24.1394 29.8625 24.1348 29.7203Z" fill="#58556C"/>
<path fill-rule="evenodd" clip-rule="evenodd" d="M23.2774 30.0241C23.2757 29.9667 23.3207 29.9187 23.3782 29.9168C23.4358 29.9149 23.4836 29.9602 23.4855 30.0176C23.4901 30.1571 23.4916 30.2945 23.4931 30.4332C23.4962 30.7005 23.4994 30.9717 23.527 31.304C23.5663 31.7758 23.8186 32.1674 23.8193 32.1685C23.8502 32.2169 23.8359 32.281 23.7875 32.3122C23.7391 32.3431 23.6745 32.3288 23.6438 32.2804C23.6431 32.2791 23.3622 31.844 23.3188 31.3212C23.2915 30.9917 23.2883 30.7112 23.2852 30.4351C23.2837 30.3 23.282 30.1664 23.2774 30.0241Z" fill="#58556C"/>
<path fill-rule="evenodd" clip-rule="evenodd" d="M22.375 30.1899C22.3734 30.1327 22.4184 30.0847 22.4758 30.0828C22.5333 30.0809 22.5813 30.126 22.5832 30.1834C22.5876 30.3229 22.5891 30.4603 22.5907 30.599C22.5937 30.8661 22.5968 31.1375 22.6246 31.4696C22.664 31.9416 22.9163 32.3332 22.9169 32.3343C22.9478 32.3824 22.9335 32.4466 22.8851 32.4778C22.8367 32.5085 22.7723 32.4942 22.7414 32.446C22.7408 32.4447 22.4601 32.0096 22.4165 31.4868C22.3891 31.1571 22.386 30.8766 22.3828 30.6005C22.3814 30.4658 22.3797 30.332 22.375 30.1899Z" fill="#58556C"/>
<path fill-rule="evenodd" clip-rule="evenodd" d="M21.4512 30.3558C21.4495 30.2985 21.4946 30.2506 21.552 30.2485C21.6097 30.2466 21.6574 30.2918 21.6593 30.3495C21.664 30.489 21.6654 30.6264 21.6671 30.7649C21.6701 31.0321 21.6732 31.3036 21.701 31.6356C21.7401 32.1077 21.9925 32.4993 21.9933 32.5001C22.0242 32.5485 22.0099 32.6127 21.9615 32.6436C21.9131 32.6746 21.8487 32.6603 21.8178 32.6121C21.8172 32.6106 21.5362 32.1756 21.4929 31.6527C21.4655 31.3232 21.4624 31.0426 21.4592 30.7666C21.4575 30.6317 21.4558 30.4978 21.4512 30.3558Z" fill="#58556C"/>
<path fill-rule="evenodd" clip-rule="evenodd" d="M20.6113 30.3526C20.6113 30.2951 20.658 30.2484 20.7155 30.2484C20.7729 30.2484 20.8197 30.2951 20.8197 30.3526L20.8241 32.5558C20.8241 32.6131 20.7776 32.6598 20.7201 32.6598C20.6627 32.6598 20.6162 32.6131 20.6162 32.5558L20.6113 30.3526Z" fill="#58556C"/>
<path fill-rule="evenodd" clip-rule="evenodd" d="M15.0495 7.8551C15.0223 7.80439 15.0413 7.74126 15.092 7.7139C15.1427 7.68655 15.2061 7.70569 15.2332 7.7562C15.8071 8.82015 16.999 9.75595 18.3729 10.5015C20.1258 11.4525 22.1689 12.0897 23.6106 12.2892C23.6676 12.2969 23.7074 12.3496 23.6996 12.4066C23.6918 12.4636 23.639 12.5034 23.5822 12.4956C22.1188 12.2932 20.0475 11.6478 18.2733 10.685C16.8676 9.92262 15.6448 8.95904 15.0495 7.8551Z" fill="#1E1E1E"/>
<path fill-rule="evenodd" clip-rule="evenodd" d="M16.2196 6.9428C16.162 6.9428 16.1152 6.89608 16.1152 6.83863C16.1152 6.78097 16.162 6.73425 16.2196 6.73425C17.8985 6.73425 19.4618 7.02529 20.8864 7.49877C22.5646 8.05621 24.0484 8.86638 25.3005 9.75083C26.6199 10.6831 27.6847 11.7356 28.4511 13.0117C29.2177 14.2882 29.6845 15.7861 29.8073 17.6076C29.8111 17.6648 29.7678 17.7149 29.7101 17.7185C29.6527 17.7221 29.603 17.6787 29.5992 17.6215C29.4787 15.8345 29.0222 14.3669 28.2724 13.1186C27.5225 11.8697 26.4774 10.8373 25.1805 9.9215C23.9425 9.04693 22.4767 8.24644 20.8212 7.69636C19.4178 7.22983 17.8766 6.9428 16.2196 6.9428Z" fill="#1E1E1E"/>
<path fill-rule="evenodd" clip-rule="evenodd" d="M16.9837 5.99358C16.9316 6.01778 16.8695 5.99505 16.8455 5.94265C16.8215 5.89067 16.8442 5.82859 16.8966 5.8046C21.18 3.83157 23.9689 5.79514 26.3739 7.48871C26.9682 7.90706 27.5389 8.30878 28.0991 8.62695C28.1492 8.65536 28.1668 8.7187 28.1382 8.76878C28.1098 8.81886 28.0465 8.83654 27.9964 8.80792C27.4257 8.48406 26.8518 8.07982 26.254 7.65895C23.8942 5.99779 21.1579 4.07105 16.9837 5.99358Z" fill="#1E1E1E"/>
<path fill-rule="evenodd" clip-rule="evenodd" d="M14.1936 9.607C14.1907 9.54955 14.2349 9.50052 14.2923 9.49758C14.3498 9.49463 14.3986 9.53882 14.4017 9.59627C14.432 10.1564 14.2725 10.9529 13.9983 11.7398C13.7328 12.5013 13.3586 13.257 12.9443 13.7829C12.1383 14.8054 12.1261 16.065 12.1261 16.0686C12.1253 16.126 12.0777 16.1719 12.0205 16.1709C11.963 16.17 11.9171 16.1227 11.918 16.0652C11.918 16.0614 11.9312 14.7313 12.7803 13.6539C13.1806 13.1459 13.5432 12.4123 13.8018 11.6709C14.0676 10.9083 14.2222 10.1409 14.1936 9.607Z" fill="#1E1E1E"/>
</g>
<defs>
<clipPath id="clip0_2012_727">
<rect width="41.1719" height="41.1719" rx="20.5859" fill="white"/>
</clipPath>
</defs>
</svg>
